<svg height="496pt" viewBox="0 0 496 496.216" width="496pt" xmlns="http://www.w3.org/2000/svg"><path d="m288.109375 336c0 35.289062 28.710937 64 64 64 35.285156 0 64-28.710938 64-64s-28.714844-64-64-64c-35.289063 0-64 28.710938-64 64zm64-48c26.46875 0 48 21.527344 48 48s-21.53125 48-48 48c-26.472656 0-48-21.527344-48-48s21.527344-48 48-48zm0 0"/><path d="m323.292969 244.503906c-5.367188 1.695313-10.5625 3.839844-15.519531 6.425782l-19.519532-9.464844-30.675781 30.671875 9.464844 19.519531c-2.574219 4.960938-4.726563 10.160156-6.421875 15.519531l-20.511719 7.136719v43.375l20.503906 7.128906c1.695313 5.367188 3.839844 10.558594 6.421875 15.519532l-9.464844 19.519531 30.671876 30.671875 19.523437-9.464844c4.957031 2.578125 10.160156 4.730469 15.519531 6.425781l7.136719 20.511719h43.375l7.128906-20.503906c5.367188-1.695313 10.558594-3.839844 15.519531-6.425782l19.519532 9.464844 30.671875-30.671875-9.464844-19.519531c2.574219-4.960938 4.726563-10.160156 6.425781-15.519531l20.511719-7.136719v-43.375l-20.503906-7.128906c-1.699219-5.367188-3.839844-10.558594-6.425781-15.519532l9.464843-19.519531-30.671875-30.671875-19.519531 9.464844c-4.960937-2.578125-10.160156-4.730469-15.519531-6.425781l-7.136719-20.511719h-43.375zm12.367187 13.175782 6.136719-17.679688h20.625l6.132813 17.679688 4.105468 1.089843c6.886719 1.832031 13.464844 4.550781 19.535156 8.085938l3.679688 2.136719 16.832031-8.160157 14.578125 14.574219-8.160156 16.832031 2.136719 3.683594c3.527343 6.078125 6.246093 12.644531 8.085937 19.535156l1.089844 4.101563 17.671875 6.128906v20.625l-17.679687 6.136719-1.089844 4.101562c-1.832032 6.890625-4.550782 13.464844-8.085938 19.539063l-2.136718 3.679687 8.160156 16.832031-14.578125 14.574219-16.832031-8.160156-3.679688 2.136719c-6.078125 3.527344-12.648438 6.246094-19.535156 8.085937l-4.105469 1.089844-6.125 17.671875h-20.625l-6.136719-17.679688-4.105468-1.089843c-6.886719-1.832031-13.460938-4.550781-19.535157-8.085938l-3.679687-2.136719-16.832032 8.160157-14.574218-14.574219 8.160156-16.832031-2.136719-3.683594c-3.527343-6.078125-6.25-12.644531-8.089843-19.535156l-1.085938-4.101563-17.671875-6.128906v-20.625l17.679687-6.136719 1.085938-4.101562c1.832031-6.890625 4.554688-13.464844 8.089844-19.539063l2.136718-3.679687-8.160156-16.832031 14.574219-14.574219 16.832031 8.160156 3.679688-2.136719c6.082031-3.527344 12.648437-6.246094 19.535156-8.085937zm0 0"/><path d="m352.109375 368v-16c-8.824219 0-16-7.175781-16-16s7.175781-16 16-16 16 7.175781 16 16h16c0-17.648438-14.351563-32-32-32s-32 14.351562-32 32 14.351563 32 32 32zm0 0"/><path d="m495.660156 208h-8c-45.585937 0-91.214844-10.777344-131.976562-31.160156l-3.574219-1.785156v-7.054688c0-13.230469-10.769531-24-24-24v-32c13.230469 0 24-10.769531 24-24v-64c0-13.230469-10.769531-24-24-24h-304c-13.234375 0-24 10.769531-24 24v64c0 13.230469 10.765625 24 24 24v32c-13.234375 0-24 10.769531-24 24v64c0 13.230469 10.765625 24 24 24v32c-13.234375 0-24 10.769531-24 24v64c0 13.230469 10.765625 24 24 24h204.078125c23.929688 47.128906 67.59375 82.96875 122.089844 95.792969l1.832031.421875 1.832031-.429688c83.703125-19.6875 142.167969-93.503906 142.167969-179.496094v-100.289062zm-159.550781-40v14.609375c-25.371094 11.222656-52.363281 18.816406-80 22.574219v-45.183594h72c4.414063 0 8 3.585938 8 8zm0-144v64c0 4.414062-3.585937 8-8 8h-216v-80h216c4.414063 0 8 3.585938 8 8zm-320 64v-64c0-4.414062 3.582031-8 8-8h72v80h-72c-4.417969 0-8-3.585938-8-8zm24 24h272v32h-272zm-24 120v-64c0-4.414062 3.582031-8 8-8h216v46.902344c-7.976563.648437-15.976563 1.097656-24 1.097656h-8v32h-184c-4.417969 0-8-3.585938-8-8zm24 24h168v32h-168zm-24 120v-64c0-4.414062 3.582031-8 8-8h72v80h-72c-4.417969 0-8-3.585938-8-8zm96 8v-80h96v12.289062c0 6.664063.46875 13.214844 1.152344 19.710938h-81.152344v16h83.558594c2.152343 11.039062 5.304687 21.726562 9.335937 32zm368-67.710938c0 77.894532-52.539063 144.855469-128 163.488282-75.464844-18.625-128-85.585938-128-163.488282v-92.386718c44.191406-1.09375 88.214844-11.742188 128-30.992188 39.671875 19.195313 83.558594 29.84375 128 30.984375zm0 0"/><path d="m56.109375 80c13.230469 0 24-10.769531 24-24s-10.769531-24-24-24c-13.234375 0-24 10.769531-24 24s10.765625 24 24 24zm0-32c4.414063 0 8 3.585938 8 8s-3.585937 8-8 8c-4.417969 0-8-3.585938-8-8s3.582031-8 8-8zm0 0"/><path d="m128.109375 48h192v16h-192zm0 0"/><path d="m32.109375 192h160v16h-160zm0 0"/><path d="m56.109375 320c-13.234375 0-24 10.769531-24 24s10.765625 24 24 24c13.230469 0 24-10.769531 24-24s-10.769531-24-24-24zm0 32c-4.417969 0-8-3.585938-8-8s3.582031-8 8-8c4.414063 0 8 3.585938 8 8s-3.585937 8-8 8zm0 0"/></svg>