<svg height="512pt" viewBox="0 -56 512 512" width="512pt" xmlns="http://www.w3.org/2000/svg"><path d="m192.375 327.640625h80.15625v64.125h-80.15625zm0 0" fill="#95a8b8"/><path d="m192.375 327.640625h80.15625v16.03125h-80.15625zm0 0" fill="#5b788c"/><path d="m448.875 327.640625h-432.84375c-4.425781 0-8.015625-3.589844-8.015625-8.015625v-304.59375c0-4.429688 3.589844-8.015625 8.015625-8.015625h432.84375c4.429688 0 8.015625 3.585937 8.015625 8.015625v304.59375c0 4.425781-3.585937 8.015625-8.015625 8.015625zm0 0" fill="#8ae0ff"/><path d="m32.0625 7.015625v320.625h-16.03125c-4.429688 0-8.015625-3.585937-8.015625-8.015625v-304.59375c0-4.429688 3.585937-8.015625 8.015625-8.015625zm0 0" fill="#2ac3f2"/><path d="m456.890625 279.546875v40.078125c0 4.429688-3.585937 8.015625-8.015625 8.015625h-432.84375c-4.429688 0-8.015625-3.585937-8.015625-8.015625v-40.078125zm0 0" fill="#95a8b8"/><path d="m32.0625 279.546875v48.09375h-16.03125c-4.429688 0-8.015625-3.585937-8.015625-8.015625v-40.078125zm0 0" fill="#5b788c"/><path d="m448.875 359.703125h-136.265625c-4.425781 0-8.015625-3.589844-8.015625-8.015625v-200.390625c0-4.429687 3.589844-8.015625 8.015625-8.015625h136.265625c4.429688 0 8.015625 3.585938 8.015625 8.015625v200.390625c0 4.425781-3.585937 8.015625-8.015625 8.015625zm0 0" fill="#8ae0ff"/><path d="m328.640625 143.28125v216.421875h-16.03125c-4.425781 0-8.015625-3.585937-8.015625-8.015625v-200.390625c0-4.429687 3.589844-8.015625 8.015625-8.015625zm0 0" fill="#2ac3f2"/><path d="m456.890625 327.640625v24.046875c0 4.429688-3.585937 8.015625-8.015625 8.015625h-136.265625c-4.425781 0-8.015625-3.585937-8.015625-8.015625v-24.046875zm0 0" fill="#95a8b8"/><path d="m328.640625 327.640625v32.0625h-16.03125c-4.425781 0-8.015625-3.585937-8.015625-8.015625v-24.046875zm0 0" fill="#5b788c"/><path d="m496.96875 287.5625h-80.15625c-4.425781 0-8.015625-3.589844-8.015625-8.015625v-160.3125c0-4.429687 3.589844-8.015625 8.015625-8.015625h80.15625c4.429688 0 8.015625 3.585938 8.015625 8.015625v160.3125c0 4.425781-3.585937 8.015625-8.015625 8.015625zm0 0" fill="#8ae0ff"/><path d="m432.84375 111.21875v176.34375h-16.03125c-4.425781 0-8.015625-3.585938-8.015625-8.015625v-160.3125c0-4.429687 3.589844-8.015625 8.015625-8.015625zm0 0" fill="#2ac3f2"/><path d="m504.984375 255.5v24.046875c0 4.429687-3.585937 8.015625-8.015625 8.015625h-80.15625c-4.425781 0-8.015625-3.585938-8.015625-8.015625v-24.046875zm0 0" fill="#95a8b8"/><path d="m432.84375 255.5v32.0625h-16.03125c-4.425781 0-8.015625-3.585938-8.015625-8.015625v-24.046875zm0 0" fill="#5b788c"/><path d="m408.796875 143.28125v-24.046875c0-4.429687 3.589844-8.015625 8.015625-8.015625h80.15625c4.429688 0 8.015625 3.585938 8.015625 8.015625v24.046875zm0 0" fill="#95a8b8"/><path d="m432.84375 111.21875v32.0625h-24.046875v-24.046875c0-4.429687 3.589844-8.015625 8.015625-8.015625zm0 0" fill="#5b788c"/><g fill="#fff"><path d="m192.375 239.96875h16.03125v15.027344h-16.03125zm0 0"/><path d="m224.4375 239.96875h16.03125v15.027344h-16.03125zm0 0"/><path d="m256.5 239.96875h16.03125v15.027344h-16.03125zm0 0"/></g><path d="m496.96875 104.203125h-80.15625c-8.5625 0-16.03125 6.464844-16.03125 15.03125v17.03125h-88.171875c-8.5625 0-16.03125 6.464844-16.03125 15.03125v169.328125h-280.546875c-.277344 0-1-.722656-1-1v-32.0625h265.515625v-15.03125h-265.515625v-257.5c0-.277344.722656 0 1 0h432.84375c.277344 0 0-.277344 0 0v72.140625h15.03125v-72.140625c0-8.566406-6.464844-15.03125-15.03125-15.03125h-432.84375c-8.5625 0-16.03125 6.464844-16.03125 15.03125v304.59375c0 8.5625 7.46875 16.03125 16.03125 16.03125h168.328125v49.09375h-32.0625v15.03125h160.3125v-15.03125h-33.0625v-49.09375h17.03125v16.03125c0 8.5625 7.46875 16.03125 16.03125 16.03125h136.265625c8.566406 0 15.03125-7.46875 15.03125-16.03125v-56.109375h33.0625c8.566406 0 15.03125-7.46875 15.03125-16.03125v-160.3125c0-8.566406-6.464844-15.03125-15.03125-15.03125zm-232.453125 280.546875h-65.125v-49.09375h65.125zm152.296875-265.515625h80.15625c.277344 0 0-.277344 0 0v17.03125h-81.15625v-17.03125c0-.277344.726562 0 1 0zm-1 32.0625h81.15625v97.1875h-81.15625zm33.0625 201.390625h-136.265625c-.273437 0-1-.722656-1-1v-16.03125h137.265625v16.03125c0 .277344.277344 1 0 1zm0-32.0625h-137.265625v-169.328125c0-.277344.726563 0 1 0h88.171875v128.25c0 8.5625 7.46875 16.03125 16.03125 16.03125h32.0625zm48.09375-40.078125h-80.15625c-.273438 0-1-.722656-1-1v-16.03125h81.15625v16.03125c0 .277344.277344 1 0 1zm0 0"/><path d="m47.09375 71.140625v-24.046875h25.046875v-15.03125h-40.078125v39.078125zm0 0"/><path d="m320.625 191.375h15.03125v-16.03125h17.03125v-15.03125h-32.0625zm0 0"/><path d="m424.828125 160.3125v31.0625h15.03125v-16.03125h17.03125v-15.03125zm0 0"/></svg>