<svg height="464pt" viewBox="0 0 464 464" width="464pt" xmlns="http://www.w3.org/2000/svg"><path d="m272 312v-56h-256v-96h256v-16h-248c-13.230469 0-24 10.769531-24 24v200h400v-16h-88c-22.054688 0-40-17.945312-40-40zm-144 40h-112v-80h112zm96 0h-80v-16h80zm32 0h-16v-16h16zm0-32h-112v-16h112zm0-32h-112v-16h112zm0 0"/><path d="m32 176h240v64h-240zm0 0"/><path d="m32 288h80v48h-80zm0 0"/><path d="m256 432h-112v16h-32v16h176v-16h-32zm0 0"/><path d="m288 312c0 13.230469 10.769531 24 24 24h128c13.230469 0 24-10.769531 24-24v-24h-176zm64-8h48v16h-48zm0 0"/><path d="m440 0h-128c-13.230469 0-24 10.769531-24 24v8h176v-8c0-13.230469-10.769531-24-24-24zm0 0"/><path d="m0 392c0 13.230469 10.769531 24 24 24h352c13.230469 0 24-10.769531 24-24v-8h-400zm0 0"/><path d="m320 80h112v64h-112zm0 0"/><path d="m288 272h176v-224h-176zm160-16h-16v-16h16zm-144-192h144v96h-144zm0 112h144v16h-144zm0 32h144v16h-144zm0 32h112v16h-112zm0 0"/></svg>