<svg height="496pt" viewBox="0 0 496 496" width="496pt" xmlns="http://www.w3.org/2000/svg"><path d="m32 464h368v-208h-368zm16-192h336v176h-336zm0 0"/><path d="m496 158.238281v-60.476562l-21.902344-5.503907c-1.625-4.859374-3.5625-9.554687-5.777344-14.042968l11.566407-19.34375-42.757813-42.757813-19.34375 11.566407c-4.488281-2.214844-9.175781-4.152344-14.042968-5.777344l-5.503907-21.902344h-60.476562l-5.503907 21.902344c-4.859374 1.625-9.554687 3.5625-14.042968 5.777344l-19.34375-11.566407-42.757813 42.757813 11.566407 19.34375c-2.214844 4.488281-4.152344 9.175781-5.777344 14.042968l-21.902344 5.503907v62.238281h-200c-22.054688 0-40 17.945312-40 40v256c0 22.054688 17.945312 40 40 40h352c22.054688 0 40-17.945312 40-40v-219.175781l5.128906 3.070312 42.757813-42.757812-11.566407-19.34375c2.214844-4.488281 4.152344-9.175781 5.777344-14.039063zm-456 17.761719h352c13.230469 0 24 10.769531 24 24v24h-400v-24c0-13.230469 10.769531-24 24-24zm264-48c0-35.289062 28.710938-64 64-64s64 28.710938 64 64c0 15.230469-5.304688 29.519531-15.007812 41.023438-4.28125-3.457032-9.230469-6.039063-14.6875-7.511719 8.457031-8.65625 13.695312-20.480469 13.695312-33.511719 0-26.472656-21.527344-48-48-48s-48 21.527344-48 48c0 12.304688 4.6875 23.496094 12.320312 32h-19.550781c-5.648437-9.726562-8.769531-20.65625-8.769531-32zm32 0c0-17.648438 14.351562-32 32-32s32 14.351562 32 32-14.351562 32-32 32-32-14.351562-32-32zm56 352h-352c-13.230469 0-24-10.769531-24-24v-216h400v216c0 13.230469-10.769531 24-24 24zm69.390625-329.558594-1.277344 4.40625c-1.992187 6.855469-4.671875 13.359375-7.96875 19.34375l-2.214843 4.023438 9.824218 16.425781-25.121094 25.121094-2.632812-1.578125v-18.183594c0-6.695312-1.808594-12.910156-4.726562-18.464844 13.375-14.726562 20.726562-33.472656 20.726562-53.535156 0-44.113281-35.886719-80-80-80s-80 35.886719-80 80c0 11.128906 2.414062 21.953125 6.816406 32h-38.816406v-49.761719l18.609375-4.679687 1.277344-4.40625c1.992187-6.855469 4.671875-13.359375 7.96875-19.34375l2.214843-4.023438-9.832031-16.425781 25.121094-25.121094 16.425781 9.824219 4.023438-2.214844c5.984375-3.296875 12.488281-5.976562 19.34375-7.96875l4.40625-1.277344 4.679687-18.601562h35.523438l4.679687 18.609375 4.40625 1.277344c6.855469 1.992187 13.359375 4.671875 19.34375 7.96875l4.023438 2.214843 16.425781-9.832031 25.121094 25.121094-9.824219 16.425781 2.214844 4.023438c3.296875 5.984375 5.976562 12.488281 7.96875 19.34375l1.277344 4.40625 18.601562 4.679687v35.523438zm0 0"/><path d="m32 192h16v16h-16zm0 0"/><path d="m64 192h16v16h-16zm0 0"/><path d="m96 192h16v16h-16zm0 0"/><path d="m64 352h16v16h-16zm0 0"/><path d="m96 352h56v16h-56zm0 0"/><path d="m80 320h16v16h-16zm0 0"/><path d="m112 320h40v16h-40zm0 0"/><path d="m80 384h16v16h-16zm0 0"/><path d="m112 384h40v16h-40zm0 0"/><path d="m296 320h-52.6875l-32-32h-53.558594l10.246094 40.992188v62.023437l-10.246094 40.984375h53.558594l32-32h52.6875c27.550781 0 53.863281-13.160156 70.398438-35.199219l3.601562-4.800781-3.601562-4.800781c-16.535157-22.039063-42.847657-35.199219-70.398438-35.199219zm-16 16v48h-96v-48zm-75.3125-32 16 16h-38.441406l-4-16zm0 112h-26.441406l4-16h38.441406zm91.3125-32v-48c20.464844 0 40.097656 8.871094 53.664062 24-13.566406 15.128906-33.199218 24-53.664062 24zm0 0"/></svg>