<svg height="496pt" viewBox="0 0 496 496" width="496pt" xmlns="http://www.w3.org/2000/svg"><path d="m48 200.566406v247.433594h247.433594zm16 38.625 192.808594 192.808594h-192.808594zm0 0"/><path d="m400 416h48v16h-48zm0 0"/><path d="m400 448h48v16h-48zm0 0"/><path d="m488 120h8v-56c0-13.230469-10.769531-24-24-24-2.816406 0-5.488281.574219-8 1.472656v-1.472656c0-22.054688-17.945312-40-40-40s-40 17.945312-40 40v265.472656c-9.289062 3.3125-16 12.113282-16 22.527344v24c-8.824219 0-16 7.175781-16 16v16c0 8.824219 7.175781 16 16 16v52.6875l-32-32v-420.6875h-96v324.6875l-16-16v-222.574219l-40-80-40 80v142.574219l-144-144v411.3125h480v-96c8.824219 0 16-7.175781 16-16v-16c0-8.824219-7.175781-16-16-16v-24c0-10.414062-6.710938-19.214844-16-22.527344v-241.472656c0-4.40625 3.59375-8 8-8s8 3.59375 8 8v41.367188c-9.3125 3.304687-16 12.199218-16 22.632812s6.6875 19.328125 16 22.632812v41.367188h16v-56h-8c-4.40625 0-8-3.59375-8-8s3.59375-8 8-8zm-88 184v-208h48v208zm-144-288h64v16h-32v16h32v16h-16v16h16v16h-32v16h32v16h-16v16h16v16h-32v16h32v16h-16v16h16v16h-32v16h32v16h-16v16h16v16h-32v16h32v16h-16v16h16v16h-32v16h32v36.6875l-64-64zm-64 260.6875v-180.6875h16v196.6875zm11.054688-196.6875h-38.109376l19.054688-38.113281zm-43.054688 16h16v164.6875l-16-16zm-144 384v-32h16v-16h-16v-16h16v-16h-16v-16h16v-16h-16v-16h16v-16h-16v-16h16v-16h-16v-16h16v-16h-16v-16h16v-16h-16v-16h16v-16h-16v-84.6875l352 352v4.6875zm448 0h-80v-80h80zm16.007812-96h-112.007812v-16h112zm-96.007812-32v-24c0-4.40625 3.59375-8 8-8h64c4.40625 0 8 3.59375 8 8v24zm64-272h-48v-40c0-13.230469 10.769531-24 24-24s24 10.769531 24 24zm0 0"/></svg>